<svg version="1" xmlns="http://www.w3.org/2000/svg" width="682.667" height="682.667" viewBox="0 0 512.000000 512.000000"><path d="M128 256v177h71V289H218.7l41.9 72 41.9 72H384l-4.9-8.3c-26.1-44.5-81.4-139.3-81.8-140.2-.3-.8 1.9-2 6.3-3.5 29.1-9.4 50.2-30 59.3-57.9 4.6-14.2 5.6-21.6 5.6-42.6-.1-17.3-.4-21.1-2.3-28.3-8.6-32.7-28.1-53.4-60.6-64.3-24.4-8.3-32.4-8.9-112.2-8.9H128v177zm138.5-114.7c21 6.3 31.5 20.2 31.5 41.8 0 7-2.8 21.6-5 25.8-8.5 16.7-21.8 20.5-70 19.9l-23.5-.3-.3-44.9-.2-44.8 31.2.5c23.7.4 32.5.8 36.3 2z"/></svg>